<mxfile host="app.diagrams.net" agent="Mozilla/5.0 (X11; Ubuntu; Linux x86_64; rv:131.0) Gecko/20100101 Firefox/131.0" version="24.7.16">
  <diagram id="C5RBs43oDa-KdzZeNtuy" name="Page-1">
    <mxGraphModel dx="2467" dy="1852" grid="1" gridSize="10" guides="1" tooltips="1" connect="1" arrows="1" fold="1" page="0" pageScale="1" pageWidth="827" pageHeight="1169" math="0" shadow="0">
      <root>
        <mxCell id="WIyWlLk6GJQsqaUBKTNV-0" />
        <mxCell id="WIyWlLk6GJQsqaUBKTNV-1" parent="WIyWlLk6GJQsqaUBKTNV-0" />
        <mxCell id="ha09b_qebTmNtz7dc31P-0" value="Referee Review" style="rounded=0;whiteSpace=wrap;html=1;" parent="WIyWlLk6GJQsqaUBKTNV-1" vertex="1">
          <mxGeometry x="-550" y="-190" width="120" height="60" as="geometry" />
        </mxCell>
        <mxCell id="ha09b_qebTmNtz7dc31P-1" value="&lt;div&gt;Author Revisions&lt;/div&gt;" style="rounded=0;whiteSpace=wrap;html=1;" parent="WIyWlLk6GJQsqaUBKTNV-1" vertex="1">
          <mxGeometry x="-395" y="-50" width="120" height="60" as="geometry" />
        </mxCell>
        <mxCell id="ha09b_qebTmNtz7dc31P-2" value="" style="endArrow=classic;html=1;rounded=0;exitX=0.25;exitY=1;exitDx=0;exitDy=0;entryX=0.25;entryY=0;entryDx=0;entryDy=0;fillColor=#f8cecc;strokeColor=#b85450;" parent="WIyWlLk6GJQsqaUBKTNV-1" target="ha09b_qebTmNtz7dc31P-20" edge="1">
          <mxGeometry width="50" height="50" relative="1" as="geometry">
            <mxPoint x="-530" y="-130" as="sourcePoint" />
            <mxPoint x="-520" y="-80" as="targetPoint" />
          </mxGeometry>
        </mxCell>
        <mxCell id="ha09b_qebTmNtz7dc31P-3" value="" style="endArrow=classic;html=1;rounded=0;entryX=0.5;entryY=0;entryDx=0;entryDy=0;exitX=0.75;exitY=1;exitDx=0;exitDy=0;fillColor=#f8cecc;strokeColor=#b85450;" parent="WIyWlLk6GJQsqaUBKTNV-1" target="ha09b_qebTmNtz7dc31P-1" edge="1">
          <mxGeometry width="50" height="50" relative="1" as="geometry">
            <mxPoint x="-470" y="-130" as="sourcePoint" />
            <mxPoint x="-520" y="-80" as="targetPoint" />
          </mxGeometry>
        </mxCell>
        <mxCell id="ha09b_qebTmNtz7dc31P-4" value="Accept with Revisions" style="text;html=1;align=center;verticalAlign=middle;resizable=0;points=[];autosize=1;strokeColor=none;fillColor=none;fontSize=16;fontColor=#ED333B;" parent="WIyWlLk6GJQsqaUBKTNV-1" vertex="1">
          <mxGeometry x="-380" y="-100" width="180" height="30" as="geometry" />
        </mxCell>
        <mxCell id="ha09b_qebTmNtz7dc31P-5" value="&lt;div style=&quot;font-size: 16px;&quot;&gt;Accept&lt;/div&gt;" style="text;html=1;align=center;verticalAlign=middle;resizable=0;points=[];autosize=1;strokeColor=none;fillColor=none;fontSize=16;fontColor=#ED333B;" parent="WIyWlLk6GJQsqaUBKTNV-1" vertex="1">
          <mxGeometry x="-600" y="-10" width="70" height="30" as="geometry" />
        </mxCell>
        <mxCell id="ha09b_qebTmNtz7dc31P-6" value="Editor Review" style="rounded=0;whiteSpace=wrap;html=1;" parent="WIyWlLk6GJQsqaUBKTNV-1" vertex="1">
          <mxGeometry x="-220" y="70" width="140" height="60" as="geometry" />
        </mxCell>
        <mxCell id="ha09b_qebTmNtz7dc31P-7" value="" style="endArrow=classic;html=1;rounded=0;entryX=0.25;entryY=0;entryDx=0;entryDy=0;exitX=1;exitY=0.5;exitDx=0;exitDy=0;fillColor=#d5e8d4;strokeColor=#82b366;" parent="WIyWlLk6GJQsqaUBKTNV-1" source="ha09b_qebTmNtz7dc31P-1" target="ha09b_qebTmNtz7dc31P-6" edge="1">
          <mxGeometry width="50" height="50" relative="1" as="geometry">
            <mxPoint x="-270" y="-30" as="sourcePoint" />
            <mxPoint x="-247.5" y="135" as="targetPoint" />
          </mxGeometry>
        </mxCell>
        <mxCell id="ha09b_qebTmNtz7dc31P-9" value="Assign New Referee" style="text;html=1;align=center;verticalAlign=middle;whiteSpace=wrap;rounded=0;fontSize=16;fontColor=#ED333B;" parent="WIyWlLk6GJQsqaUBKTNV-1" vertex="1">
          <mxGeometry x="-660" y="-130" width="80" height="30" as="geometry" />
        </mxCell>
        <mxCell id="ha09b_qebTmNtz7dc31P-10" style="edgeStyle=orthogonalEdgeStyle;rounded=0;orthogonalLoop=1;jettySize=auto;html=1;entryX=0;entryY=0.5;entryDx=0;entryDy=0;fillColor=#f8cecc;strokeColor=#b85450;" parent="WIyWlLk6GJQsqaUBKTNV-1" source="ha09b_qebTmNtz7dc31P-11" target="ha09b_qebTmNtz7dc31P-12" edge="1">
          <mxGeometry relative="1" as="geometry" />
        </mxCell>
        <mxCell id="ha09b_qebTmNtz7dc31P-11" value="Submitted" style="rounded=0;whiteSpace=wrap;html=1;" parent="WIyWlLk6GJQsqaUBKTNV-1" vertex="1">
          <mxGeometry x="-550" y="-360" width="120" height="60" as="geometry" />
        </mxCell>
        <mxCell id="ha09b_qebTmNtz7dc31P-12" value="Rejected" style="rounded=0;whiteSpace=wrap;html=1;" parent="WIyWlLk6GJQsqaUBKTNV-1" vertex="1">
          <mxGeometry x="-310" y="-360" width="120" height="60" as="geometry" />
        </mxCell>
        <mxCell id="ha09b_qebTmNtz7dc31P-13" value="&lt;div style=&quot;font-size: 16px;&quot;&gt;Reject&lt;/div&gt;" style="text;html=1;align=center;verticalAlign=middle;whiteSpace=wrap;rounded=0;fontSize=16;fontColor=#ED333B;" parent="WIyWlLk6GJQsqaUBKTNV-1" vertex="1">
          <mxGeometry x="-395" y="-370" width="60" height="30" as="geometry" />
        </mxCell>
        <mxCell id="ha09b_qebTmNtz7dc31P-14" value="" style="endArrow=classic;html=1;rounded=0;exitX=0.75;exitY=1;exitDx=0;exitDy=0;entryX=0.75;entryY=0;entryDx=0;entryDy=0;fillColor=#f8cecc;strokeColor=#b85450;" parent="WIyWlLk6GJQsqaUBKTNV-1" target="ha09b_qebTmNtz7dc31P-0" edge="1">
          <mxGeometry width="50" height="50" relative="1" as="geometry">
            <mxPoint x="-459.99666666666644" y="-300" as="sourcePoint" />
            <mxPoint x="-490" y="-270" as="targetPoint" />
          </mxGeometry>
        </mxCell>
        <mxCell id="ha09b_qebTmNtz7dc31P-15" value="" style="endArrow=classic;html=1;rounded=0;exitX=0.25;exitY=0;exitDx=0;exitDy=0;entryX=0.25;entryY=1;entryDx=0;entryDy=0;fillColor=#f8cecc;strokeColor=#b85450;" parent="WIyWlLk6GJQsqaUBKTNV-1" source="ha09b_qebTmNtz7dc31P-0" edge="1">
          <mxGeometry width="50" height="50" relative="1" as="geometry">
            <mxPoint x="-540" y="-220" as="sourcePoint" />
            <mxPoint x="-519.9966666666664" y="-300" as="targetPoint" />
          </mxGeometry>
        </mxCell>
        <mxCell id="ha09b_qebTmNtz7dc31P-16" value="Assign New Referee" style="text;html=1;align=center;verticalAlign=middle;whiteSpace=wrap;rounded=0;fontSize=16;fontColor=#ED333B;" parent="WIyWlLk6GJQsqaUBKTNV-1" vertex="1">
          <mxGeometry x="-460" y="-270" width="60" height="30" as="geometry" />
        </mxCell>
        <mxCell id="ha09b_qebTmNtz7dc31P-17" value="Remove referee" style="text;html=1;align=center;verticalAlign=middle;whiteSpace=wrap;rounded=0;fontSize=16;fontColor=#ED333B;" parent="WIyWlLk6GJQsqaUBKTNV-1" vertex="1">
          <mxGeometry x="-590" y="-290" width="70" height="50" as="geometry" />
        </mxCell>
        <mxCell id="ha09b_qebTmNtz7dc31P-18" value="&lt;div style=&quot;font-size: 16px;&quot;&gt;Remove referee&lt;/div&gt;" style="text;html=1;align=center;verticalAlign=middle;whiteSpace=wrap;rounded=0;fontSize=16;fontColor=#ED333B;" parent="WIyWlLk6GJQsqaUBKTNV-1" vertex="1">
          <mxGeometry x="-360" y="-175" width="60" height="30" as="geometry" />
        </mxCell>
        <mxCell id="ha09b_qebTmNtz7dc31P-42" style="edgeStyle=none;curved=1;rounded=0;orthogonalLoop=1;jettySize=auto;html=1;exitX=0.5;exitY=1;exitDx=0;exitDy=0;entryX=0.5;entryY=0;entryDx=0;entryDy=0;fontSize=12;startSize=8;endSize=8;fillColor=#d5e8d4;strokeColor=#82b366;" parent="WIyWlLk6GJQsqaUBKTNV-1" edge="1">
          <mxGeometry relative="1" as="geometry">
            <mxPoint x="-502.83999999999986" y="340" as="sourcePoint" />
            <mxPoint x="-502.83999999999986" y="400.0000000000002" as="targetPoint" />
          </mxGeometry>
        </mxCell>
        <mxCell id="ha09b_qebTmNtz7dc31P-20" value="Copy Edit" style="rounded=0;whiteSpace=wrap;html=1;" parent="WIyWlLk6GJQsqaUBKTNV-1" vertex="1">
          <mxGeometry x="-562.5" y="160" width="120" height="60" as="geometry" />
        </mxCell>
        <mxCell id="ha09b_qebTmNtz7dc31P-21" style="edgeStyle=orthogonalEdgeStyle;rounded=0;orthogonalLoop=1;jettySize=auto;html=1;entryX=0.5;entryY=0;entryDx=0;entryDy=0;fillColor=#f8cecc;strokeColor=#b85450;" parent="WIyWlLk6GJQsqaUBKTNV-1" source="ha09b_qebTmNtz7dc31P-22" target="ha09b_qebTmNtz7dc31P-23" edge="1">
          <mxGeometry relative="1" as="geometry" />
        </mxCell>
        <mxCell id="ha09b_qebTmNtz7dc31P-22" value="Formatting" style="rounded=0;whiteSpace=wrap;html=1;" parent="WIyWlLk6GJQsqaUBKTNV-1" vertex="1">
          <mxGeometry x="-562.5" y="400" width="120" height="60" as="geometry" />
        </mxCell>
        <mxCell id="ha09b_qebTmNtz7dc31P-23" value="Published" style="rounded=0;whiteSpace=wrap;html=1;" parent="WIyWlLk6GJQsqaUBKTNV-1" vertex="1">
          <mxGeometry x="-562.5" y="510" width="120" height="60" as="geometry" />
        </mxCell>
        <mxCell id="ha09b_qebTmNtz7dc31P-26" value="Done" style="text;html=1;align=center;verticalAlign=middle;whiteSpace=wrap;rounded=0;fontSize=16;fontColor=#97D077;" parent="WIyWlLk6GJQsqaUBKTNV-1" vertex="1">
          <mxGeometry x="-510" y="350" width="85" height="30" as="geometry" />
        </mxCell>
        <mxCell id="ha09b_qebTmNtz7dc31P-27" value="Done" style="text;html=1;align=center;verticalAlign=middle;whiteSpace=wrap;rounded=0;fontSize=16;fontColor=#ED333B;" parent="WIyWlLk6GJQsqaUBKTNV-1" vertex="1">
          <mxGeometry x="-497.5" y="470" width="60" height="30" as="geometry" />
        </mxCell>
        <mxCell id="ha09b_qebTmNtz7dc31P-28" value="" style="endArrow=classic;html=1;rounded=0;entryX=0.5;entryY=0;entryDx=0;entryDy=0;fontColor=#97D077;fillColor=#d5e8d4;strokeColor=#82b366;" parent="WIyWlLk6GJQsqaUBKTNV-1" target="ha09b_qebTmNtz7dc31P-11" edge="1">
          <mxGeometry width="50" height="50" relative="1" as="geometry">
            <mxPoint x="-490" y="-410" as="sourcePoint" />
            <mxPoint x="-320" y="-280" as="targetPoint" />
          </mxGeometry>
        </mxCell>
        <mxCell id="ha09b_qebTmNtz7dc31P-29" value="&lt;font style=&quot;font-size: 21px;&quot;&gt;START&lt;/font&gt;" style="text;html=1;align=center;verticalAlign=middle;whiteSpace=wrap;rounded=0;" parent="WIyWlLk6GJQsqaUBKTNV-1" vertex="1">
          <mxGeometry x="-520" y="-440" width="60" height="30" as="geometry" />
        </mxCell>
        <mxCell id="ha09b_qebTmNtz7dc31P-30" value="" style="curved=1;endArrow=classic;html=1;rounded=0;exitX=-0.024;exitY=0.16;exitDx=0;exitDy=0;entryX=0;entryY=0.75;entryDx=0;entryDy=0;exitPerimeter=0;fillColor=#f8cecc;strokeColor=#b85450;" parent="WIyWlLk6GJQsqaUBKTNV-1" edge="1">
          <mxGeometry width="50" height="50" relative="1" as="geometry">
            <mxPoint x="-427" y="-180" as="sourcePoint" />
            <mxPoint x="-430" y="-145" as="targetPoint" />
            <Array as="points">
              <mxPoint x="-390" y="-190" />
              <mxPoint x="-370" y="-180" />
              <mxPoint x="-360" y="-160" />
              <mxPoint x="-370" y="-140" />
              <mxPoint x="-380" y="-130" />
              <mxPoint x="-410" y="-130" />
              <mxPoint x="-420" y="-140" />
            </Array>
          </mxGeometry>
        </mxCell>
        <mxCell id="ha09b_qebTmNtz7dc31P-31" value="" style="endArrow=classic;html=1;rounded=0;fontSize=12;startSize=8;endSize=8;curved=1;fillColor=#d5e8d4;strokeColor=#82b366;" parent="WIyWlLk6GJQsqaUBKTNV-1" edge="1">
          <mxGeometry width="50" height="50" relative="1" as="geometry">
            <mxPoint x="-60" y="-320" as="sourcePoint" />
            <mxPoint x="-60" y="-250" as="targetPoint" />
          </mxGeometry>
        </mxCell>
        <mxCell id="ha09b_qebTmNtz7dc31P-32" value="Withdrawn" style="rounded=0;whiteSpace=wrap;html=1;" parent="WIyWlLk6GJQsqaUBKTNV-1" vertex="1">
          <mxGeometry x="-120" y="-250" width="120" height="60" as="geometry" />
        </mxCell>
        <mxCell id="ha09b_qebTmNtz7dc31P-33" value="" style="endArrow=classic;html=1;rounded=0;fontSize=12;startSize=8;endSize=8;curved=1;entryX=0;entryY=1;entryDx=0;entryDy=0;fillColor=#f8cecc;strokeColor=#b85450;" parent="WIyWlLk6GJQsqaUBKTNV-1" target="ha09b_qebTmNtz7dc31P-12" edge="1">
          <mxGeometry width="50" height="50" relative="1" as="geometry">
            <mxPoint x="-430" y="-190" as="sourcePoint" />
            <mxPoint x="-380" y="-240" as="targetPoint" />
          </mxGeometry>
        </mxCell>
        <mxCell id="ha09b_qebTmNtz7dc31P-34" value="Reject" style="text;html=1;align=center;verticalAlign=middle;whiteSpace=wrap;rounded=0;fontSize=16;fontColor=#ED333B;" parent="WIyWlLk6GJQsqaUBKTNV-1" vertex="1">
          <mxGeometry x="-360" y="-260" width="60" height="30" as="geometry" />
        </mxCell>
        <mxCell id="ha09b_qebTmNtz7dc31P-35" value="NOTE: Can be withdrawn by author at any time" style="text;html=1;align=center;verticalAlign=middle;whiteSpace=wrap;rounded=0;fontSize=16;" parent="WIyWlLk6GJQsqaUBKTNV-1" vertex="1">
          <mxGeometry x="-140" y="-370" width="150" height="30" as="geometry" />
        </mxCell>
        <mxCell id="ha09b_qebTmNtz7dc31P-36" value="Withdraw" style="text;html=1;align=center;verticalAlign=middle;whiteSpace=wrap;rounded=0;fontSize=16;fontColor=#97D077;" parent="WIyWlLk6GJQsqaUBKTNV-1" vertex="1">
          <mxGeometry x="-130" y="-310" width="60" height="30" as="geometry" />
        </mxCell>
        <mxCell id="ha09b_qebTmNtz7dc31P-37" value="Done" style="text;html=1;align=center;verticalAlign=middle;whiteSpace=wrap;rounded=0;fontSize=16;fontColor=#97D077;" parent="WIyWlLk6GJQsqaUBKTNV-1" vertex="1">
          <mxGeometry x="-250" width="105" height="30" as="geometry" />
        </mxCell>
        <mxCell id="ha09b_qebTmNtz7dc31P-38" value="" style="endArrow=classic;html=1;rounded=0;fontSize=12;startSize=8;endSize=8;curved=1;exitX=0;exitY=0.5;exitDx=0;exitDy=0;entryX=1;entryY=0.5;entryDx=0;entryDy=0;fillColor=#f8cecc;strokeColor=#b85450;" parent="WIyWlLk6GJQsqaUBKTNV-1" source="ha09b_qebTmNtz7dc31P-6" target="ha09b_qebTmNtz7dc31P-20" edge="1">
          <mxGeometry width="50" height="50" relative="1" as="geometry">
            <mxPoint x="-220" y="190" as="sourcePoint" />
            <mxPoint x="-60" y="170" as="targetPoint" />
          </mxGeometry>
        </mxCell>
        <mxCell id="ha09b_qebTmNtz7dc31P-39" value="&lt;div&gt;Accept&lt;/div&gt;" style="text;html=1;align=center;verticalAlign=middle;whiteSpace=wrap;rounded=0;fontSize=16;fontColor=#ED333B;" parent="WIyWlLk6GJQsqaUBKTNV-1" vertex="1">
          <mxGeometry x="-320" y="140" width="60" height="30" as="geometry" />
        </mxCell>
        <mxCell id="ha09b_qebTmNtz7dc31P-43" style="edgeStyle=none;curved=1;rounded=0;orthogonalLoop=1;jettySize=auto;html=1;exitX=0.5;exitY=1;exitDx=0;exitDy=0;entryX=0.5;entryY=0;entryDx=0;entryDy=0;fontSize=12;startSize=8;endSize=8;fillColor=#f8cecc;strokeColor=#b85450;" parent="WIyWlLk6GJQsqaUBKTNV-1" edge="1">
          <mxGeometry relative="1" as="geometry">
            <mxPoint x="-502.83999999999986" y="220.00000000000023" as="sourcePoint" />
            <mxPoint x="-502.83999999999986" y="280.0000000000002" as="targetPoint" />
            <Array as="points">
              <mxPoint x="-502.34" y="260" />
            </Array>
          </mxGeometry>
        </mxCell>
        <mxCell id="ha09b_qebTmNtz7dc31P-41" value="Author Review" style="rounded=0;whiteSpace=wrap;html=1;" parent="WIyWlLk6GJQsqaUBKTNV-1" vertex="1">
          <mxGeometry x="-562.5" y="280" width="120" height="60" as="geometry" />
        </mxCell>
        <mxCell id="ha09b_qebTmNtz7dc31P-44" value="Done" style="text;html=1;align=center;verticalAlign=middle;whiteSpace=wrap;rounded=0;fontSize=16;fontColor=#ED333B;" parent="WIyWlLk6GJQsqaUBKTNV-1" vertex="1">
          <mxGeometry x="-520" y="240" width="85" height="30" as="geometry" />
        </mxCell>
        <mxCell id="ha09b_qebTmNtz7dc31P-45" style="edgeStyle=none;curved=1;rounded=0;orthogonalLoop=1;jettySize=auto;html=1;exitX=0.5;exitY=1;exitDx=0;exitDy=0;fontSize=12;startSize=8;endSize=8;" parent="WIyWlLk6GJQsqaUBKTNV-1" source="ha09b_qebTmNtz7dc31P-44" target="ha09b_qebTmNtz7dc31P-44" edge="1">
          <mxGeometry relative="1" as="geometry" />
        </mxCell>
        <mxCell id="ha09b_qebTmNtz7dc31P-46" value="Additionally, the editor is able to use the &quot;Editor Move&quot; action which forcefully changes to any state" style="text;html=1;align=center;verticalAlign=middle;whiteSpace=wrap;rounded=0;fontSize=16;" parent="WIyWlLk6GJQsqaUBKTNV-1" vertex="1">
          <mxGeometry x="-300" y="220" width="230" height="105" as="geometry" />
        </mxCell>
        <mxCell id="e3Gr9QY8buaAAwxs419z-1" value="" style="curved=1;endArrow=classic;html=1;rounded=0;fontSize=12;startSize=8;endSize=8;exitX=0;exitY=0.75;exitDx=0;exitDy=0;entryX=0.085;entryY=1.056;entryDx=0;entryDy=0;entryPerimeter=0;fillColor=#f8cecc;strokeColor=#b85450;" edge="1" parent="WIyWlLk6GJQsqaUBKTNV-1" source="ha09b_qebTmNtz7dc31P-0" target="ha09b_qebTmNtz7dc31P-0">
          <mxGeometry width="50" height="50" relative="1" as="geometry">
            <mxPoint x="-620" y="-120" as="sourcePoint" />
            <mxPoint x="-620" y="-80" as="targetPoint" />
            <Array as="points">
              <mxPoint x="-560" y="-150" />
              <mxPoint x="-580" y="-140" />
              <mxPoint x="-580" y="-110" />
              <mxPoint x="-550" y="-110" />
            </Array>
          </mxGeometry>
        </mxCell>
        <mxCell id="e3Gr9QY8buaAAwxs419z-2" value="" style="curved=1;endArrow=classic;html=1;rounded=0;fontSize=12;startSize=8;endSize=8;exitX=0;exitY=0.25;exitDx=0;exitDy=0;entryX=0.085;entryY=1.056;entryDx=0;entryDy=0;entryPerimeter=0;fontColor=#7EA6E0;fillColor=#dae8fc;strokeColor=#6c8ebf;" edge="1" parent="WIyWlLk6GJQsqaUBKTNV-1" source="ha09b_qebTmNtz7dc31P-0">
          <mxGeometry width="50" height="50" relative="1" as="geometry">
            <mxPoint x="-556" y="-181" as="sourcePoint" />
            <mxPoint x="-545" y="-193" as="targetPoint" />
            <Array as="points">
              <mxPoint x="-565" y="-170" />
              <mxPoint x="-585" y="-180" />
              <mxPoint x="-585" y="-210" />
              <mxPoint x="-555" y="-210" />
            </Array>
          </mxGeometry>
        </mxCell>
        <mxCell id="e3Gr9QY8buaAAwxs419z-4" value="Submit Review" style="text;html=1;align=center;verticalAlign=middle;whiteSpace=wrap;rounded=0;fontSize=16;fontColor=#7EA6E0;" vertex="1" parent="WIyWlLk6GJQsqaUBKTNV-1">
          <mxGeometry x="-650" y="-210" width="60" height="30" as="geometry" />
        </mxCell>
        <mxCell id="e3Gr9QY8buaAAwxs419z-5" value="" style="endArrow=classic;html=1;rounded=0;fontSize=12;startSize=8;endSize=8;curved=1;fontColor=#ED333B;labelBackgroundColor=default;strokeColor=#ED333B;" edge="1" parent="WIyWlLk6GJQsqaUBKTNV-1">
          <mxGeometry width="50" height="50" relative="1" as="geometry">
            <mxPoint x="-320" y="380" as="sourcePoint" />
            <mxPoint x="-120" y="380" as="targetPoint" />
          </mxGeometry>
        </mxCell>
        <mxCell id="e3Gr9QY8buaAAwxs419z-7" value="Editor" style="text;html=1;align=center;verticalAlign=middle;whiteSpace=wrap;rounded=0;fontSize=16;fontColor=#ED333B;" vertex="1" parent="WIyWlLk6GJQsqaUBKTNV-1">
          <mxGeometry x="-250" y="350" width="60" height="30" as="geometry" />
        </mxCell>
        <mxCell id="e3Gr9QY8buaAAwxs419z-9" value="" style="endArrow=classic;html=1;rounded=0;fontSize=12;startSize=8;endSize=8;curved=1;fillColor=#d5e8d4;strokeColor=#82b366;" edge="1" parent="WIyWlLk6GJQsqaUBKTNV-1">
          <mxGeometry width="50" height="50" relative="1" as="geometry">
            <mxPoint x="-320" y="444.5" as="sourcePoint" />
            <mxPoint x="-120" y="444.5" as="targetPoint" />
          </mxGeometry>
        </mxCell>
        <mxCell id="e3Gr9QY8buaAAwxs419z-10" value="Author" style="text;html=1;align=center;verticalAlign=middle;whiteSpace=wrap;rounded=0;fontSize=16;fontColor=#97D077;" vertex="1" parent="WIyWlLk6GJQsqaUBKTNV-1">
          <mxGeometry x="-250" y="414.5" width="60" height="30" as="geometry" />
        </mxCell>
        <mxCell id="e3Gr9QY8buaAAwxs419z-13" value="" style="endArrow=classic;html=1;rounded=0;fontSize=12;startSize=8;endSize=8;curved=1;fillColor=#dae8fc;strokeColor=#6c8ebf;" edge="1" parent="WIyWlLk6GJQsqaUBKTNV-1">
          <mxGeometry width="50" height="50" relative="1" as="geometry">
            <mxPoint x="-320" y="509" as="sourcePoint" />
            <mxPoint x="-120" y="509" as="targetPoint" />
          </mxGeometry>
        </mxCell>
        <mxCell id="e3Gr9QY8buaAAwxs419z-14" value="Referee" style="text;html=1;align=center;verticalAlign=middle;whiteSpace=wrap;rounded=0;fontSize=16;fontColor=#7EA6E0;" vertex="1" parent="WIyWlLk6GJQsqaUBKTNV-1">
          <mxGeometry x="-250" y="479" width="60" height="30" as="geometry" />
        </mxCell>
      </root>
    </mxGraphModel>
  </diagram>
</mxfile>
